<svg width="19" height="18" viewBox="0 0 19 18" fill="none" xmlns="http://www.w3.org/2000/svg">
<g clip-path="url(#clip0_1313_6142)">
<path opacity="0.2" d="M16.25 0H2.75C2.55109 0 2.36032 0.0790178 2.21967 0.21967C2.07902 0.360322 2 0.551088 2 0.75V17.25C2 17.4489 2.07902 17.6397 2.21967 17.7803C2.36032 17.921 2.55109 18 2.75 18H16.25C16.4489 18 16.6397 17.921 16.7803 17.7803C16.921 17.6397 17 17.4489 17 17.25V0.75C17 0.551088 16.921 0.360322 16.7803 0.21967C16.6397 0.0790178 16.4489 0 16.25 0ZM9.5 12.75C8.90666 12.75 8.32664 12.5741 7.83329 12.2444C7.33994 11.9148 6.95542 11.4462 6.72836 10.8981C6.5013 10.3499 6.44189 9.74667 6.55764 9.16473C6.6734 8.58279 6.95912 8.04824 7.37868 7.62868C7.79824 7.20912 8.33279 6.9234 8.91473 6.80764C9.49667 6.69189 10.0999 6.7513 10.6481 6.97836C11.1962 7.20542 11.6648 7.58994 11.9944 8.08329C12.3241 8.57664 12.5 9.15666 12.5 9.75C12.5 10.5456 12.1839 11.3087 11.6213 11.8713C11.0587 12.4339 10.2956 12.75 9.5 12.75Z" fill="white"/>
<path d="M9.5 12.75C11.1569 12.75 12.5 11.4069 12.5 9.75C12.5 8.09315 11.1569 6.75 9.5 6.75C7.84315 6.75 6.5 8.09315 6.5 9.75C6.5 11.4069 7.84315 12.75 9.5 12.75ZM9.5 12.75C8.62675 12.75 7.76549 12.9533 6.98442 13.3438C6.20336 13.7344 5.52395 14.3014 5 15M9.5 12.75C10.3733 12.75 11.2345 12.9533 12.0156 13.3438C12.7966 13.7344 13.476 14.3014 14 15M6.5 3H12.5M17 0.75V17.25C17 17.6642 16.6642 18 16.25 18H2.75C2.33579 18 2 17.6642 2 17.25V0.75C2 0.335786 2.33579 0 2.75 0H16.25C16.6642 0 17 0.335786 17 0.75Z" stroke="white" stroke-linecap="round" stroke-linejoin="round"/>
</g>
<defs>
<clipPath id="clip0_1313_6142">
<rect width="18" height="18" fill="white" transform="translate(0.833374)"/>
</clipPath>
</defs>
</svg>
