<svg width="260" height="71" viewBox="0 0 260 71" fill="none" xmlns="http://www.w3.org/2000/svg">
<path d="M39.0673 31.7682V36.315H34.5141V33.5735C34.5141 32.4703 35.7714 31.7682 36.349 31.7682H39.0673Z" fill="url(#paint0_linear_1304_5002)"/>
<path d="M50.96 30.0966L50.4163 32.9718L39.9168 22.7749C39.4411 22.2734 38.7275 22.1731 38.1159 22.7749L27.9902 32.604C27.6732 32.8778 27.5906 33.1073 27.5145 33.5735V50.39C25.9093 49.435 25.3374 48.6941 25 46.9465V33.5735C25.034 32.37 25.2363 31.9045 25.8495 31.367L36.315 21.1367C37.3622 20.3633 37.9465 20.0055 38.9654 20C40.0743 20.0675 40.6268 20.2947 41.5138 20.9695L50.96 30.0966Z" fill="url(#paint1_linear_1304_5002)"/>
<path d="M38.2518 44.3053C37.6749 44.7364 37.8031 44.8859 38.2518 45.1077C45.7666 44.0095 47.3309 43.3358 48.3776 42.2325C50.7025 39.782 52.0402 35.2653 52.4551 31.601C54.6226 32.7627 54.4259 36.1478 52.3871 43.3358C51.1934 47.5445 47.1883 48.4619 35.9752 50.1226C30.7802 50.8919 28.9756 50.7578 28.9756 50.7578C28.9756 50.7578 28.9756 46.8069 32.5094 43.8373C35.2277 41.5529 36.5529 41.731 37.5043 41.1961L42.6351 39.1567C44.3818 38.7776 44.6814 38.8521 44.8098 39.1567C45.2224 41.5536 41.9527 42.4427 38.2518 44.3053Z" fill="url(#paint2_linear_1304_5002)"/>
<path d="M42.1254 50.8246C48.2508 49.7781 51.2174 48.9509 53.2026 45.7764L53.2018 45.7912C53.0703 48.1907 52.9963 49.5406 49.363 50.8246C46.345 51.116 44.8413 50.9929 42.1254 50.8246Z" fill="url(#paint3_linear_1304_5002)"/>
<path d="M44.7418 36.2816H40.1207V31.8016H42.907C44.0283 31.8016 44.7418 33.0386 44.7418 33.607V36.2816Z" fill="url(#paint4_linear_1304_5002)"/>
<path d="M34.4462 37.3848H39.0673V38.6887L34.5161 40.4272C34.4701 40.29 34.4462 40.1635 34.4462 40.0594V37.3848Z" fill="url(#paint5_linear_1304_5002)"/>
<path d="M40.1207 38.2875V37.3514H42.5672L40.1207 38.2875Z" fill="url(#paint6_linear_1304_5002)"/>
<path d="M72.755 43.72C71.9703 43.72 71.2003 43.621 70.445 43.423C69.6897 43.225 69.0003 42.928 68.377 42.532C67.7537 42.136 67.2367 41.641 66.826 41.047C66.4227 40.453 66.1807 39.7563 66.1 38.957H69.389C69.499 39.441 69.708 39.848 70.016 40.178C70.324 40.508 70.7127 40.761 71.182 40.937C71.6513 41.113 72.172 41.201 72.744 41.201C73.3307 41.201 73.866 41.1277 74.35 40.981C74.834 40.8343 75.2227 40.6143 75.516 40.321C75.8093 40.0203 75.956 39.6463 75.956 39.199C75.956 38.7957 75.835 38.4657 75.593 38.209C75.3583 37.9523 75.0393 37.7433 74.636 37.582C74.2327 37.4207 73.7743 37.2887 73.261 37.186L70.511 36.625C69.3083 36.3977 68.355 35.921 67.651 35.195C66.947 34.4617 66.584 33.4863 66.562 32.269C66.5547 31.2717 66.8187 30.41 67.354 29.684C67.8967 28.9507 68.63 28.386 69.554 27.99C70.4853 27.594 71.5267 27.396 72.678 27.396C74.0493 27.396 75.2007 27.6123 76.132 28.045C77.0707 28.4703 77.782 29.0497 78.266 29.783C78.7573 30.509 79.0103 31.3193 79.025 32.214H75.802C75.7433 31.6567 75.5747 31.213 75.296 30.883C75.0173 30.553 74.658 30.3147 74.218 30.168C73.7853 30.0213 73.2903 29.948 72.733 29.948C72.3077 29.948 71.919 29.9957 71.567 30.091C71.2223 30.1863 70.929 30.322 70.687 30.498C70.445 30.6667 70.258 30.8683 70.126 31.103C69.994 31.3377 69.928 31.6017 69.928 31.895C69.928 32.357 70.082 32.731 70.39 33.017C70.698 33.303 71.2737 33.5377 72.117 33.721L74.845 34.282C75.8203 34.4727 76.594 34.755 77.166 35.129C77.7453 35.503 78.178 35.9247 78.464 36.394C78.7573 36.8633 78.948 37.3437 79.036 37.835C79.1313 38.319 79.179 38.7663 79.179 39.177C79.179 40.035 78.9077 40.8087 78.365 41.498C77.8297 42.18 77.0817 42.7227 76.121 43.126C75.1603 43.522 74.0383 43.72 72.755 43.72ZM84.14 38.55C84.1327 39.1293 84.2243 39.6353 84.415 40.068C84.6057 40.4933 84.8807 40.8233 85.24 41.058C85.6067 41.2853 86.0467 41.399 86.56 41.399C87.11 41.399 87.5903 41.2817 88.001 41.047C88.419 40.8123 88.7087 40.4273 88.87 39.892H91.763C91.6383 40.6987 91.3157 41.388 90.795 41.96C90.2817 42.532 89.6583 42.9683 88.925 43.269C88.1917 43.5697 87.429 43.72 86.637 43.72C85.515 43.72 84.525 43.4853 83.667 43.016C82.8163 42.5393 82.1527 41.8683 81.676 41.003C81.1993 40.1377 80.961 39.1183 80.961 37.945C80.961 36.8083 81.1773 35.7853 81.61 34.876C82.0427 33.9593 82.6697 33.237 83.491 32.709C84.3197 32.1737 85.3133 31.906 86.472 31.906C87.6307 31.906 88.6023 32.1517 89.387 32.643C90.179 33.127 90.773 33.8053 91.169 34.678C91.5723 35.5433 91.774 36.5443 91.774 37.681V38.55H84.14ZM84.129 36.636H88.771C88.771 36.1813 88.6867 35.7633 88.518 35.382C88.3493 35.0007 88.0927 34.7 87.748 34.48C87.4107 34.26 86.9853 34.15 86.472 34.15C85.9733 34.15 85.548 34.271 85.196 34.513C84.8513 34.7477 84.5873 35.0557 84.404 35.437C84.2207 35.8183 84.129 36.218 84.129 36.636ZM94.0039 43.5V32.126H97.0949V34.821C97.2782 34.2417 97.5349 33.7357 97.8649 33.303C98.2022 32.863 98.6092 32.522 99.0859 32.28C99.5626 32.0307 100.102 31.906 100.703 31.906C100.806 31.906 100.901 31.9133 100.989 31.928C101.084 31.9353 101.154 31.95 101.198 31.972V35.03C101.132 35.0007 101.051 34.9823 100.956 34.975C100.868 34.9677 100.787 34.9603 100.714 34.953C100.083 34.9017 99.5442 34.92 99.0969 35.008C98.6496 35.096 98.2866 35.2463 98.0079 35.459C97.7292 35.6717 97.5276 35.932 97.4029 36.24C97.2782 36.548 97.2159 36.8927 97.2159 37.274V43.5H94.0039ZM113.193 32.126L108.925 43.5H106.604L102.325 32.126H105.229L107.715 39.375H107.803L110.256 32.126H113.193ZM118.078 32.126V43.5H115.009V32.126H118.078ZM118.111 27.605V30.498H114.987V27.605H118.111ZM125.861 31.906C126.815 31.906 127.636 32.1003 128.325 32.489C129.022 32.8777 129.568 33.402 129.964 34.062C130.368 34.722 130.599 35.459 130.657 36.273H127.984C127.933 35.9723 127.827 35.6753 127.665 35.382C127.504 35.0813 127.277 34.8357 126.983 34.645C126.69 34.447 126.323 34.348 125.883 34.348C125.135 34.348 124.527 34.6377 124.057 35.217C123.595 35.789 123.364 36.6617 123.364 37.835C123.364 38.9423 123.592 39.8223 124.046 40.475C124.501 41.1203 125.135 41.443 125.949 41.443C126.382 41.443 126.741 41.3367 127.027 41.124C127.321 40.9113 127.548 40.6583 127.709 40.365C127.871 40.0643 127.973 39.7857 128.017 39.529H130.624C130.573 40.3137 130.346 41.025 129.942 41.663C129.539 42.2937 128.989 42.796 128.292 43.17C127.603 43.5367 126.793 43.72 125.861 43.72C124.805 43.72 123.863 43.4853 123.034 43.016C122.206 42.5467 121.553 41.8757 121.076 41.003C120.607 40.123 120.372 39.0743 120.372 37.857C120.372 36.6837 120.6 35.6497 121.054 34.755C121.509 33.8603 122.147 33.1637 122.968 32.665C123.797 32.159 124.761 31.906 125.861 31.906ZM135.509 38.55C135.502 39.1293 135.593 39.6353 135.784 40.068C135.975 40.4933 136.25 40.8233 136.609 41.058C136.976 41.2853 137.416 41.399 137.929 41.399C138.479 41.399 138.959 41.2817 139.37 41.047C139.788 40.8123 140.078 40.4273 140.239 39.892H143.132C143.007 40.6987 142.685 41.388 142.164 41.96C141.651 42.532 141.027 42.9683 140.294 43.269C139.561 43.5697 138.798 43.72 138.006 43.72C136.884 43.72 135.894 43.4853 135.036 43.016C134.185 42.5393 133.522 41.8683 133.045 41.003C132.568 40.1377 132.33 39.1183 132.33 37.945C132.33 36.8083 132.546 35.7853 132.979 34.876C133.412 33.9593 134.039 33.237 134.86 32.709C135.689 32.1737 136.682 31.906 137.841 31.906C139 31.906 139.971 32.1517 140.756 32.643C141.548 33.127 142.142 33.8053 142.538 34.678C142.941 35.5433 143.143 36.5443 143.143 37.681V38.55H135.509ZM135.498 36.636H140.14C140.14 36.1813 140.056 35.7633 139.887 35.382C139.718 35.0007 139.462 34.7 139.117 34.48C138.78 34.26 138.354 34.15 137.841 34.15C137.342 34.15 136.917 34.271 136.565 34.513C136.22 34.7477 135.956 35.0557 135.773 35.437C135.59 35.8183 135.498 36.218 135.498 36.636ZM144.303 33.776L145.579 30.784L144.457 30.674V27.594H147.702V30.311L145.491 33.776H144.303ZM157.222 27.374C158.417 27.374 159.481 27.616 160.412 28.1C161.351 28.5767 162.106 29.2293 162.678 30.058C163.257 30.8867 163.598 31.8217 163.701 32.863H160.335C160.232 32.313 160.045 31.8253 159.774 31.4C159.503 30.9673 159.147 30.63 158.707 30.388C158.267 30.1387 157.739 30.014 157.123 30.014C156.382 30.014 155.744 30.1937 155.209 30.553C154.674 30.9123 154.263 31.4917 153.977 32.291C153.691 33.0903 153.548 34.1463 153.548 35.459C153.548 37.439 153.863 38.8727 154.494 39.76C155.132 40.64 156.008 41.08 157.123 41.08C157.739 41.08 158.267 40.9407 158.707 40.662C159.147 40.376 159.503 40.002 159.774 39.54C160.045 39.0707 160.232 38.5573 160.335 38H163.701C163.606 38.7553 163.422 39.4777 163.151 40.167C162.88 40.849 162.495 41.4577 161.996 41.993C161.497 42.5283 160.856 42.95 160.071 43.258C159.286 43.566 158.337 43.72 157.222 43.72C155.741 43.72 154.461 43.3753 153.383 42.686C152.305 41.9967 151.473 41.0287 150.886 39.782C150.307 38.5353 150.017 37.0797 150.017 35.415C150.017 33.743 150.307 32.3093 150.886 31.114C151.465 29.9113 152.294 28.9873 153.372 28.342C154.45 27.6967 155.733 27.374 157.222 27.374ZM171.054 43.72C169.939 43.72 168.968 43.4817 168.139 43.005C167.318 42.5283 166.68 41.8537 166.225 40.981C165.778 40.1083 165.554 39.0743 165.554 37.879C165.554 36.6837 165.778 35.6387 166.225 34.744C166.68 33.8493 167.318 33.1527 168.139 32.654C168.968 32.1553 169.943 31.906 171.065 31.906C172.187 31.906 173.159 32.1517 173.98 32.643C174.801 33.127 175.436 33.8163 175.883 34.711C176.33 35.6057 176.554 36.6617 176.554 37.879C176.554 39.023 176.334 40.035 175.894 40.915C175.461 41.7877 174.834 42.4733 174.013 42.972C173.199 43.4707 172.213 43.72 171.054 43.72ZM171.065 41.333C171.63 41.333 172.084 41.168 172.429 40.838C172.774 40.508 173.023 40.0753 173.177 39.54C173.338 38.9973 173.419 38.407 173.419 37.769C173.419 37.1677 173.346 36.5993 173.199 36.064C173.06 35.5287 172.818 35.096 172.473 34.766C172.128 34.436 171.659 34.271 171.065 34.271C170.5 34.271 170.042 34.4287 169.69 34.744C169.345 35.052 169.092 35.4737 168.931 36.009C168.77 36.537 168.689 37.1237 168.689 37.769C168.689 38.363 168.762 38.935 168.909 39.485C169.056 40.0277 169.301 40.4713 169.646 40.816C169.991 41.1607 170.464 41.333 171.065 41.333ZM178.695 43.5V32.126H181.841V33.732C182.186 33.2333 182.648 32.8043 183.227 32.445C183.814 32.0857 184.551 31.906 185.438 31.906C185.827 31.906 186.223 31.9757 186.626 32.115C187.03 32.2543 187.407 32.4597 187.759 32.731C188.119 32.995 188.408 33.3287 188.628 33.732C188.995 33.2113 189.475 32.7787 190.069 32.434C190.671 32.082 191.338 31.906 192.071 31.906C192.497 31.906 192.926 31.9757 193.358 32.115C193.798 32.2543 194.202 32.4817 194.568 32.797C194.935 33.1123 195.228 33.534 195.448 34.062C195.676 34.5827 195.789 35.228 195.789 35.998V43.5H192.577V36.394C192.577 35.9393 192.486 35.5763 192.302 35.305C192.126 35.0263 191.899 34.8283 191.62 34.711C191.349 34.5863 191.059 34.524 190.751 34.524C190.465 34.524 190.176 34.5827 189.882 34.7C189.589 34.81 189.34 34.9897 189.134 35.239C188.929 35.4883 188.826 35.8147 188.826 36.218V43.5H185.625V36.108C185.625 35.7633 185.534 35.4737 185.35 35.239C185.167 35.0043 184.936 34.8283 184.657 34.711C184.386 34.5863 184.107 34.524 183.821 34.524C183.528 34.524 183.235 34.5863 182.941 34.711C182.648 34.8283 182.402 35.0153 182.204 35.272C182.006 35.5213 181.907 35.8367 181.907 36.218V43.5H178.695Z" fill="#4B465C"/>
<path d="M72.755 43.72C71.9703 43.72 71.2003 43.621 70.445 43.423C69.6897 43.225 69.0003 42.928 68.377 42.532C67.7537 42.136 67.2367 41.641 66.826 41.047C66.4227 40.453 66.1807 39.7563 66.1 38.957H69.389C69.499 39.441 69.708 39.848 70.016 40.178C70.324 40.508 70.7127 40.761 71.182 40.937C71.6513 41.113 72.172 41.201 72.744 41.201C73.3307 41.201 73.866 41.1277 74.35 40.981C74.834 40.8343 75.2227 40.6143 75.516 40.321C75.8093 40.0203 75.956 39.6463 75.956 39.199C75.956 38.7957 75.835 38.4657 75.593 38.209C75.3583 37.9523 75.0393 37.7433 74.636 37.582C74.2327 37.4207 73.7743 37.2887 73.261 37.186L70.511 36.625C69.3083 36.3977 68.355 35.921 67.651 35.195C66.947 34.4617 66.584 33.4863 66.562 32.269C66.5547 31.2717 66.8187 30.41 67.354 29.684C67.8967 28.9507 68.63 28.386 69.554 27.99C70.4853 27.594 71.5267 27.396 72.678 27.396C74.0493 27.396 75.2007 27.6123 76.132 28.045C77.0707 28.4703 77.782 29.0497 78.266 29.783C78.7573 30.509 79.0103 31.3193 79.025 32.214H75.802C75.7433 31.6567 75.5747 31.213 75.296 30.883C75.0173 30.553 74.658 30.3147 74.218 30.168C73.7853 30.0213 73.2903 29.948 72.733 29.948C72.3077 29.948 71.919 29.9957 71.567 30.091C71.2223 30.1863 70.929 30.322 70.687 30.498C70.445 30.6667 70.258 30.8683 70.126 31.103C69.994 31.3377 69.928 31.6017 69.928 31.895C69.928 32.357 70.082 32.731 70.39 33.017C70.698 33.303 71.2737 33.5377 72.117 33.721L74.845 34.282C75.8203 34.4727 76.594 34.755 77.166 35.129C77.7453 35.503 78.178 35.9247 78.464 36.394C78.7573 36.8633 78.948 37.3437 79.036 37.835C79.1313 38.319 79.179 38.7663 79.179 39.177C79.179 40.035 78.9077 40.8087 78.365 41.498C77.8297 42.18 77.0817 42.7227 76.121 43.126C75.1603 43.522 74.0383 43.72 72.755 43.72ZM84.14 38.55C84.1327 39.1293 84.2243 39.6353 84.415 40.068C84.6057 40.4933 84.8807 40.8233 85.24 41.058C85.6067 41.2853 86.0467 41.399 86.56 41.399C87.11 41.399 87.5903 41.2817 88.001 41.047C88.419 40.8123 88.7087 40.4273 88.87 39.892H91.763C91.6383 40.6987 91.3157 41.388 90.795 41.96C90.2817 42.532 89.6583 42.9683 88.925 43.269C88.1917 43.5697 87.429 43.72 86.637 43.72C85.515 43.72 84.525 43.4853 83.667 43.016C82.8163 42.5393 82.1527 41.8683 81.676 41.003C81.1993 40.1377 80.961 39.1183 80.961 37.945C80.961 36.8083 81.1773 35.7853 81.61 34.876C82.0427 33.9593 82.6697 33.237 83.491 32.709C84.3197 32.1737 85.3133 31.906 86.472 31.906C87.6307 31.906 88.6023 32.1517 89.387 32.643C90.179 33.127 90.773 33.8053 91.169 34.678C91.5723 35.5433 91.774 36.5443 91.774 37.681V38.55H84.14ZM84.129 36.636H88.771C88.771 36.1813 88.6867 35.7633 88.518 35.382C88.3493 35.0007 88.0927 34.7 87.748 34.48C87.4107 34.26 86.9853 34.15 86.472 34.15C85.9733 34.15 85.548 34.271 85.196 34.513C84.8513 34.7477 84.5873 35.0557 84.404 35.437C84.2207 35.8183 84.129 36.218 84.129 36.636ZM94.0039 43.5V32.126H97.0949V34.821C97.2782 34.2417 97.5349 33.7357 97.8649 33.303C98.2022 32.863 98.6092 32.522 99.0859 32.28C99.5626 32.0307 100.102 31.906 100.703 31.906C100.806 31.906 100.901 31.9133 100.989 31.928C101.084 31.9353 101.154 31.95 101.198 31.972V35.03C101.132 35.0007 101.051 34.9823 100.956 34.975C100.868 34.9677 100.787 34.9603 100.714 34.953C100.083 34.9017 99.5442 34.92 99.0969 35.008C98.6496 35.096 98.2866 35.2463 98.0079 35.459C97.7292 35.6717 97.5276 35.932 97.4029 36.24C97.2782 36.548 97.2159 36.8927 97.2159 37.274V43.5H94.0039ZM113.193 32.126L108.925 43.5H106.604L102.325 32.126H105.229L107.715 39.375H107.803L110.256 32.126H113.193ZM118.078 32.126V43.5H115.009V32.126H118.078ZM118.111 27.605V30.498H114.987V27.605H118.111ZM125.861 31.906C126.815 31.906 127.636 32.1003 128.325 32.489C129.022 32.8777 129.568 33.402 129.964 34.062C130.368 34.722 130.599 35.459 130.657 36.273H127.984C127.933 35.9723 127.827 35.6753 127.665 35.382C127.504 35.0813 127.277 34.8357 126.983 34.645C126.69 34.447 126.323 34.348 125.883 34.348C125.135 34.348 124.527 34.6377 124.057 35.217C123.595 35.789 123.364 36.6617 123.364 37.835C123.364 38.9423 123.592 39.8223 124.046 40.475C124.501 41.1203 125.135 41.443 125.949 41.443C126.382 41.443 126.741 41.3367 127.027 41.124C127.321 40.9113 127.548 40.6583 127.709 40.365C127.871 40.0643 127.973 39.7857 128.017 39.529H130.624C130.573 40.3137 130.346 41.025 129.942 41.663C129.539 42.2937 128.989 42.796 128.292 43.17C127.603 43.5367 126.793 43.72 125.861 43.72C124.805 43.72 123.863 43.4853 123.034 43.016C122.206 42.5467 121.553 41.8757 121.076 41.003C120.607 40.123 120.372 39.0743 120.372 37.857C120.372 36.6837 120.6 35.6497 121.054 34.755C121.509 33.8603 122.147 33.1637 122.968 32.665C123.797 32.159 124.761 31.906 125.861 31.906ZM135.509 38.55C135.502 39.1293 135.593 39.6353 135.784 40.068C135.975 40.4933 136.25 40.8233 136.609 41.058C136.976 41.2853 137.416 41.399 137.929 41.399C138.479 41.399 138.959 41.2817 139.37 41.047C139.788 40.8123 140.078 40.4273 140.239 39.892H143.132C143.007 40.6987 142.685 41.388 142.164 41.96C141.651 42.532 141.027 42.9683 140.294 43.269C139.561 43.5697 138.798 43.72 138.006 43.72C136.884 43.72 135.894 43.4853 135.036 43.016C134.185 42.5393 133.522 41.8683 133.045 41.003C132.568 40.1377 132.33 39.1183 132.33 37.945C132.33 36.8083 132.546 35.7853 132.979 34.876C133.412 33.9593 134.039 33.237 134.86 32.709C135.689 32.1737 136.682 31.906 137.841 31.906C139 31.906 139.971 32.1517 140.756 32.643C141.548 33.127 142.142 33.8053 142.538 34.678C142.941 35.5433 143.143 36.5443 143.143 37.681V38.55H135.509ZM135.498 36.636H140.14C140.14 36.1813 140.056 35.7633 139.887 35.382C139.718 35.0007 139.462 34.7 139.117 34.48C138.78 34.26 138.354 34.15 137.841 34.15C137.342 34.15 136.917 34.271 136.565 34.513C136.22 34.7477 135.956 35.0557 135.773 35.437C135.59 35.8183 135.498 36.218 135.498 36.636ZM144.303 33.776L145.579 30.784L144.457 30.674V27.594H147.702V30.311L145.491 33.776H144.303ZM157.222 27.374C158.417 27.374 159.481 27.616 160.412 28.1C161.351 28.5767 162.106 29.2293 162.678 30.058C163.257 30.8867 163.598 31.8217 163.701 32.863H160.335C160.232 32.313 160.045 31.8253 159.774 31.4C159.503 30.9673 159.147 30.63 158.707 30.388C158.267 30.1387 157.739 30.014 157.123 30.014C156.382 30.014 155.744 30.1937 155.209 30.553C154.674 30.9123 154.263 31.4917 153.977 32.291C153.691 33.0903 153.548 34.1463 153.548 35.459C153.548 37.439 153.863 38.8727 154.494 39.76C155.132 40.64 156.008 41.08 157.123 41.08C157.739 41.08 158.267 40.9407 158.707 40.662C159.147 40.376 159.503 40.002 159.774 39.54C160.045 39.0707 160.232 38.5573 160.335 38H163.701C163.606 38.7553 163.422 39.4777 163.151 40.167C162.88 40.849 162.495 41.4577 161.996 41.993C161.497 42.5283 160.856 42.95 160.071 43.258C159.286 43.566 158.337 43.72 157.222 43.72C155.741 43.72 154.461 43.3753 153.383 42.686C152.305 41.9967 151.473 41.0287 150.886 39.782C150.307 38.5353 150.017 37.0797 150.017 35.415C150.017 33.743 150.307 32.3093 150.886 31.114C151.465 29.9113 152.294 28.9873 153.372 28.342C154.45 27.6967 155.733 27.374 157.222 27.374ZM171.054 43.72C169.939 43.72 168.968 43.4817 168.139 43.005C167.318 42.5283 166.68 41.8537 166.225 40.981C165.778 40.1083 165.554 39.0743 165.554 37.879C165.554 36.6837 165.778 35.6387 166.225 34.744C166.68 33.8493 167.318 33.1527 168.139 32.654C168.968 32.1553 169.943 31.906 171.065 31.906C172.187 31.906 173.159 32.1517 173.98 32.643C174.801 33.127 175.436 33.8163 175.883 34.711C176.33 35.6057 176.554 36.6617 176.554 37.879C176.554 39.023 176.334 40.035 175.894 40.915C175.461 41.7877 174.834 42.4733 174.013 42.972C173.199 43.4707 172.213 43.72 171.054 43.72ZM171.065 41.333C171.63 41.333 172.084 41.168 172.429 40.838C172.774 40.508 173.023 40.0753 173.177 39.54C173.338 38.9973 173.419 38.407 173.419 37.769C173.419 37.1677 173.346 36.5993 173.199 36.064C173.06 35.5287 172.818 35.096 172.473 34.766C172.128 34.436 171.659 34.271 171.065 34.271C170.5 34.271 170.042 34.4287 169.69 34.744C169.345 35.052 169.092 35.4737 168.931 36.009C168.77 36.537 168.689 37.1237 168.689 37.769C168.689 38.363 168.762 38.935 168.909 39.485C169.056 40.0277 169.301 40.4713 169.646 40.816C169.991 41.1607 170.464 41.333 171.065 41.333ZM178.695 43.5V32.126H181.841V33.732C182.186 33.2333 182.648 32.8043 183.227 32.445C183.814 32.0857 184.551 31.906 185.438 31.906C185.827 31.906 186.223 31.9757 186.626 32.115C187.03 32.2543 187.407 32.4597 187.759 32.731C188.119 32.995 188.408 33.3287 188.628 33.732C188.995 33.2113 189.475 32.7787 190.069 32.434C190.671 32.082 191.338 31.906 192.071 31.906C192.497 31.906 192.926 31.9757 193.358 32.115C193.798 32.2543 194.202 32.4817 194.568 32.797C194.935 33.1123 195.228 33.534 195.448 34.062C195.676 34.5827 195.789 35.228 195.789 35.998V43.5H192.577V36.394C192.577 35.9393 192.486 35.5763 192.302 35.305C192.126 35.0263 191.899 34.8283 191.62 34.711C191.349 34.5863 191.059 34.524 190.751 34.524C190.465 34.524 190.176 34.5827 189.882 34.7C189.589 34.81 189.34 34.9897 189.134 35.239C188.929 35.4883 188.826 35.8147 188.826 36.218V43.5H185.625V36.108C185.625 35.7633 185.534 35.4737 185.35 35.239C185.167 35.0043 184.936 34.8283 184.657 34.711C184.386 34.5863 184.107 34.524 183.821 34.524C183.528 34.524 183.235 34.5863 182.941 34.711C182.648 34.8283 182.402 35.0153 182.204 35.272C182.006 35.5213 181.907 35.8367 181.907 36.218V43.5H178.695Z" fill="white" fill-opacity="0.1"/>
<defs>
<linearGradient id="paint0_linear_1304_5002" x1="39.5" y1="20" x2="39.5" y2="51" gradientUnits="userSpaceOnUse">
<stop stop-color="#99CA3D"/>
<stop offset="1" stop-color="#02BDE6"/>
</linearGradient>
<linearGradient id="paint1_linear_1304_5002" x1="39.5" y1="20" x2="39.5" y2="51" gradientUnits="userSpaceOnUse">
<stop stop-color="#99CA3D"/>
<stop offset="1" stop-color="#02BDE6"/>
</linearGradient>
<linearGradient id="paint2_linear_1304_5002" x1="39.5" y1="20" x2="39.5" y2="51" gradientUnits="userSpaceOnUse">
<stop stop-color="#99CA3D"/>
<stop offset="1" stop-color="#02BDE6"/>
</linearGradient>
<linearGradient id="paint3_linear_1304_5002" x1="39.5" y1="20" x2="39.5" y2="51" gradientUnits="userSpaceOnUse">
<stop stop-color="#99CA3D"/>
<stop offset="1" stop-color="#02BDE6"/>
</linearGradient>
<linearGradient id="paint4_linear_1304_5002" x1="39.5" y1="20" x2="39.5" y2="51" gradientUnits="userSpaceOnUse">
<stop stop-color="#99CA3D"/>
<stop offset="1" stop-color="#02BDE6"/>
</linearGradient>
<linearGradient id="paint5_linear_1304_5002" x1="39.5" y1="20" x2="39.5" y2="51" gradientUnits="userSpaceOnUse">
<stop stop-color="#99CA3D"/>
<stop offset="1" stop-color="#02BDE6"/>
</linearGradient>
<linearGradient id="paint6_linear_1304_5002" x1="39.5" y1="20" x2="39.5" y2="51" gradientUnits="userSpaceOnUse">
<stop stop-color="#99CA3D"/>
<stop offset="1" stop-color="#02BDE6"/>
</linearGradient>
</defs>
</svg>
